<?xml version="1.0" encoding="UTF-8" standalone="no"?>
<!-- Generator: Adobe Illustrator 16.0.4, SVG Export Plug-In . SVG Version: 6.00 Build 0)  -->

<svg
   xmlns:dc="http://purl.org/dc/elements/1.1/"
   xmlns:cc="http://creativecommons.org/ns#"
   xmlns:rdf="http://www.w3.org/1999/02/22-rdf-syntax-ns#"
   xmlns:svg="http://www.w3.org/2000/svg"
   xmlns="http://www.w3.org/2000/svg"
   xmlns:sodipodi="http://sodipodi.sourceforge.net/DTD/sodipodi-0.dtd"
   xmlns:inkscape="http://www.inkscape.org/namespaces/inkscape"
   version="1.1"
   id="Layer_1"
   x="0px"
   y="0px"
   width="112.003px"
   height="64.868px"
   viewBox="0 0 112.003 64.868"
   enable-background="new 0 0 112.003 64.868"
   xml:space="preserve"
   sodipodi:docname="plix-logo-short-white.svg"
   inkscape:version="0.92.2 5c3e80d, 2017-08-06"><metadata
     id="metadata63"><rdf:RDF><cc:Work
         rdf:about=""><dc:format>image/svg+xml</dc:format><dc:type
           rdf:resource="http://purl.org/dc/dcmitype/StillImage" /><dc:title></dc:title></cc:Work></rdf:RDF></metadata><defs
     id="defs61" /><sodipodi:namedview
     pagecolor="#ffffff"
     bordercolor="#666666"
     borderopacity="1"
     objecttolerance="10"
     gridtolerance="10"
     guidetolerance="10"
     inkscape:pageopacity="0"
     inkscape:pageshadow="2"
     inkscape:window-width="1280"
     inkscape:window-height="688"
     id="namedview59"
     showgrid="false"
     inkscape:zoom="6.1069794"
     inkscape:cx="49.451616"
     inkscape:cy="32.433998"
     inkscape:window-x="0"
     inkscape:window-y="1"
     inkscape:window-maximized="1"
     inkscape:current-layer="Layer_1" /><g
     id="g10"
     style="fill:#ffffff"><path
       d="M0,28.779h8.267v3.285h0.159c1.855-2.438,4.504-4.08,8.214-4.08c7.207,0,11.605,6.2,11.605,14.361   c0,8.797-4.716,14.414-11.818,14.414c-3.498,0-5.988-1.378-7.684-3.656H8.638v11.765H0V28.779z M19.501,42.664   c0-4.664-1.749-7.737-5.458-7.737c-3.762,0-5.67,3.339-5.67,7.737s2.12,7.419,5.829,7.419   C17.488,50.083,19.501,47.274,19.501,42.664z"
       id="path2"
       style="fill:#ffffff" /><path
       d="M31.641,18.021h8.744v37.891h-8.744V18.021z"
       id="path4"
       style="fill:#ffffff" /><path
       d="M44.997,18.021h8.638v6.995h-8.638V18.021z M44.997,28.779h8.638v27.133h-8.638V28.779z"
       id="path6"
       style="fill:#ffffff" /><path
       d="M65.931,41.657l-8.533-12.878h9.857l4.027,6.995h0.107l3.814-6.995h9.062l-8.055,12.771l9.221,14.361H75.417l-4.451-8.108   h-0.107l-4.928,8.108h-9.434L65.931,41.657z"
       id="path8"
       style="fill:#ffffff" /></g><g
     id="g56"
     style="fill:#ffffff"><g
       id="g26"
       style="fill:#ffffff"><rect
         x="91.082"
         y="8.966"
         fill="#231F20"
         width="2.988"
         height="2.99"
         id="rect12"
         style="fill:#ffffff" /><rect
         x="91.082"
         y="11.956"
         fill="#231F20"
         width="2.988"
         height="2.988"
         id="rect14"
         style="fill:#ffffff" /><rect
         x="91.082"
         y="14.944"
         fill="#231F20"
         width="2.988"
         height="2.988"
         id="rect16"
         style="fill:#ffffff" /><rect
         x="91.082"
         y="17.933"
         fill="#231F20"
         width="2.988"
         height="2.989"
         id="rect18"
         style="fill:#ffffff" /><rect
         x="94.07"
         y="17.933"
         fill="#231F20"
         width="2.988"
         height="2.989"
         id="rect20"
         style="fill:#ffffff" /><rect
         x="97.058"
         y="17.933"
         fill="#231F20"
         width="2.99"
         height="2.989"
         id="rect22"
         style="fill:#ffffff" /><rect
         x="100.048"
         y="17.933"
         fill="#231F20"
         width="2.988"
         height="2.989"
         id="rect24"
         style="fill:#ffffff" /></g><g
       id="g54"
       style="fill:#ffffff"><rect
         x="91.082"
         fill="#231F20"
         width="2.988"
         height="2.989"
         id="rect28"
         style="fill:#ffffff" /><rect
         x="94.07"
         fill="#231F20"
         width="2.988"
         height="2.989"
         id="rect30"
         style="fill:#ffffff" /><rect
         x="97.058"
         fill="#231F20"
         width="2.99"
         height="2.989"
         id="rect32"
         style="fill:#ffffff" /><rect
         x="100.048"
         fill="#231F20"
         width="2.988"
         height="2.989"
         id="rect34"
         style="fill:#ffffff" /><rect
         x="100.048"
         y="2.989"
         fill="#231F20"
         width="2.988"
         height="2.988"
         id="rect36"
         style="fill:#ffffff" /><rect
         x="100.048"
         y="5.978"
         fill="#231F20"
         width="2.988"
         height="2.988"
         id="rect38"
         style="fill:#ffffff" /><rect
         x="100.048"
         y="8.966"
         fill="#231F20"
         width="2.988"
         height="2.99"
         id="rect40"
         style="fill:#ffffff" /><rect
         x="103.037"
         y="8.966"
         fill="#231F20"
         width="2.99"
         height="2.99"
         id="rect42"
         style="fill:#ffffff" /><rect
         x="106.027"
         y="8.966"
         fill="#231F20"
         width="2.988"
         height="2.99"
         id="rect44"
         style="fill:#ffffff" /><rect
         x="109.015"
         y="8.966"
         fill="#231F20"
         width="2.988"
         height="2.99"
         id="rect46"
         style="fill:#ffffff" /><rect
         x="109.015"
         y="11.956"
         fill="#231F20"
         width="2.988"
         height="2.988"
         id="rect48"
         style="fill:#ffffff" /><rect
         x="109.015"
         y="14.944"
         fill="#231F20"
         width="2.988"
         height="2.988"
         id="rect50"
         style="fill:#ffffff" /><rect
         x="109.015"
         y="17.933"
         fill="#231F20"
         width="2.988"
         height="2.989"
         id="rect52"
         style="fill:#ffffff" /></g></g></svg>