<?xml version="1.0" encoding="utf-8"?>
<!-- Generator: Adobe Illustrator 16.0.4, SVG Export Plug-In . SVG Version: 6.00 Build 0)  -->
<!DOCTYPE svg PUBLIC "-//W3C//DTD SVG 1.1//EN" "http://www.w3.org/Graphics/SVG/1.1/DTD/svg11.dtd">
<svg version="1.1"
	 id="Layer_1" inkscape:version="0.92.2 5c3e80d, 2017-08-06" sodipodi:docname="plix-logo-short-white.svg" xmlns:dc="http://purl.org/dc/elements/1.1/" xmlns:cc="http://creativecommons.org/ns#" xmlns:rdf="http://www.w3.org/1999/02/22-rdf-syntax-ns#" xmlns:svg="http://www.w3.org/2000/svg" xmlns:sodipodi="http://sodipodi.sourceforge.net/DTD/sodipodi-0.dtd" xmlns:inkscape="http://www.inkscape.org/namespaces/inkscape"
	 xmlns="http://www.w3.org/2000/svg" xmlns:xlink="http://www.w3.org/1999/xlink" x="0px" y="0px" width="112.003px"
	 height="64.868px" viewBox="0 0 112.003 64.868" enable-background="new 0 0 112.003 64.868" xml:space="preserve">
<sodipodi:namedview  inkscape:current-layer="Layer_1" inkscape:window-maximized="1" inkscape:window-y="1" inkscape:window-x="0" inkscape:window-height="688" inkscape:window-width="1280" inkscape:pageshadow="2" inkscape:pageopacity="0" inkscape:cy="32.433998" inkscape:cx="49.451616" inkscape:zoom="6.1069794" showgrid="false" guidetolerance="10" gridtolerance="10" objecttolerance="10" borderopacity="1" pagecolor="#ffffff" bordercolor="#666666" id="namedview59">
	</sodipodi:namedview>
<g id="g10">
	<path id="path2" fill="#FFFFFF" d="M0,28.779h8.267v3.285h0.159c1.855-2.438,4.504-4.08,8.214-4.08
		c7.207,0,11.605,6.2,11.605,14.36c0,8.798-4.716,14.414-11.818,14.414c-3.498,0-5.988-1.377-7.684-3.655H8.638v11.765H0V28.779z
		 M19.501,42.665c0-4.664-1.749-7.738-5.458-7.738c-3.762,0-5.67,3.34-5.67,7.738c0,4.397,2.12,7.418,5.829,7.418
		C17.488,50.083,19.501,47.274,19.501,42.665z"/>
	<path id="path4" fill="#FFFFFF" d="M31.641,18.021h8.744v37.892h-8.744V18.021z"/>
	<path id="path6" fill="#FFFFFF" d="M44.997,18.021h8.638v6.995h-8.638V18.021z M44.997,28.779h8.638v27.134h-8.638V28.779z"/>
	<path id="path8" fill="#FFFFFF" d="M65.931,41.657l-8.533-12.878h9.857l4.027,6.995h0.106l3.813-6.995h9.062L76.21,41.549
		l9.221,14.361H75.417l-4.451-8.107h-0.107l-4.928,8.107h-9.434L65.931,41.657z"/>
</g>
<g id="g56">
	<g id="g26">
		
			<rect id="rect12" x="91.082" y="8.966" fill="#FFFFFF" stroke="#FFFFFF" stroke-width="0.2" stroke-miterlimit="10" width="2.988" height="2.99"/>
		
			<rect id="rect14" x="91.082" y="11.956" fill="#FFFFFF" stroke="#FFFFFF" stroke-width="0.2" stroke-miterlimit="10" width="2.988" height="2.988"/>
		
			<rect id="rect16" x="91.082" y="14.944" fill="#FFFFFF" stroke="#FFFFFF" stroke-width="0.2" stroke-miterlimit="10" width="2.988" height="2.988"/>
		
			<rect id="rect18" x="91.082" y="17.933" fill="#FFFFFF" stroke="#FFFFFF" stroke-width="0.2" stroke-miterlimit="10" width="2.988" height="2.989"/>
		
			<rect id="rect20" x="94.07" y="17.933" fill="#FFFFFF" stroke="#FFFFFF" stroke-width="0.2" stroke-miterlimit="10" width="2.988" height="2.989"/>
		
			<rect id="rect22" x="97.058" y="17.933" fill="#FFFFFF" stroke="#FFFFFF" stroke-width="0.2" stroke-miterlimit="10" width="2.99" height="2.989"/>
		
			<rect id="rect24" x="100.048" y="17.933" fill="#FFFFFF" stroke="#FFFFFF" stroke-width="0.2" stroke-miterlimit="10" width="2.988" height="2.989"/>
	</g>
	<g id="g54">
		
			<rect id="rect28" x="91.082" fill="#FFFFFF" stroke="#FFFFFF" stroke-width="0.2" stroke-miterlimit="10" width="2.988" height="2.989"/>
		
			<rect id="rect30" x="94.07" fill="#FFFFFF" stroke="#FFFFFF" stroke-width="0.2" stroke-miterlimit="10" width="2.988" height="2.989"/>
		
			<rect id="rect32" x="97.058" fill="#FFFFFF" stroke="#FFFFFF" stroke-width="0.2" stroke-miterlimit="10" width="2.99" height="2.989"/>
		
			<rect id="rect34" x="100.048" fill="#FFFFFF" stroke="#FFFFFF" stroke-width="0.2" stroke-miterlimit="10" width="2.988" height="2.989"/>
		
			<rect id="rect36" x="100.048" y="2.989" fill="#FFFFFF" stroke="#FFFFFF" stroke-width="0.2" stroke-miterlimit="10" width="2.988" height="2.988"/>
		
			<rect id="rect38" x="100.048" y="5.978" fill="#FFFFFF" stroke="#FFFFFF" stroke-width="0.2" stroke-miterlimit="10" width="2.988" height="2.988"/>
		
			<rect id="rect40" x="100.048" y="8.966" fill="#FFFFFF" stroke="#FFFFFF" stroke-width="0.2" stroke-miterlimit="10" width="2.988" height="2.99"/>
		
			<rect id="rect42" x="103.037" y="8.966" fill="#FFFFFF" stroke="#FFFFFF" stroke-width="0.2" stroke-miterlimit="10" width="2.99" height="2.99"/>
		
			<rect id="rect44" x="106.027" y="8.966" fill="#FFFFFF" stroke="#FFFFFF" stroke-width="0.2" stroke-miterlimit="10" width="2.988" height="2.99"/>
		
			<rect id="rect46" x="109.015" y="8.966" fill="#FFFFFF" stroke="#FFFFFF" stroke-width="0.2" stroke-miterlimit="10" width="2.988" height="2.99"/>
		
			<rect id="rect48" x="109.015" y="11.956" fill="#FFFFFF" stroke="#FFFFFF" stroke-width="0.2" stroke-miterlimit="10" width="2.988" height="2.988"/>
		
			<rect id="rect50" x="109.015" y="14.944" fill="#FFFFFF" stroke="#FFFFFF" stroke-width="0.2" stroke-miterlimit="10" width="2.988" height="2.988"/>
		
			<rect id="rect52" x="109.015" y="17.933" fill="#FFFFFF" stroke="#FFFFFF" stroke-width="0.2" stroke-miterlimit="10" width="2.988" height="2.989"/>
	</g>
</g>
</svg>
